<svg xmlns="http://www.w3.org/2000/svg" fill="none" height="90" role="img" viewBox="0 0 353 90" width="353"><title>University of Central Oklahoma Logo</title>
            <g>
               <path d="M122.221 42.7012C121.423 41.8389 120.654 41.2628 119.909 40.973C119.165 40.6868 118.413 40.5418 117.658 40.5418C116.536 40.5418 115.519 40.7411 114.613 41.1433C113.703 41.5454 112.923 42.0997 112.268 42.8099C111.614 43.52 111.111 44.3497 110.751 45.2953C110.395 46.2409 110.215 47.259 110.215 48.3495C110.215 49.5234 110.395 50.603 110.751 51.5885C111.107 52.574 111.614 53.429 112.268 54.15C112.923 54.871 113.703 55.4362 114.613 55.8456C115.522 56.2586 116.536 56.4615 117.658 56.4615C118.536 56.4615 119.388 56.2514 120.215 55.8311C121.042 55.4108 121.811 54.7369 122.527 53.8094L125.713 56.0919C124.735 57.4506 123.537 58.436 122.131 59.0556C120.722 59.6715 119.222 59.9831 117.63 59.9831C115.954 59.9831 114.419 59.7114 113.02 59.1643C111.621 58.6208 110.417 57.8491 109.406 56.8492C108.396 55.8528 107.605 54.6536 107.033 53.2551C106.461 51.8566 106.177 50.3023 106.177 48.5959C106.177 46.8894 106.461 45.259 107.033 43.8279C107.605 42.3968 108.396 41.1795 109.406 40.1723C110.417 39.1651 111.621 38.3861 113.02 37.8427C114.419 37.2992 115.954 37.0239 117.63 37.0239C119.1 37.0239 120.463 37.2847 121.718 37.8101C122.973 38.3354 124.141 39.2267 125.224 40.4802L122.221 42.7012Z" fill="white"></path>
               <path d="M130.308 53.3167C130.43 54.4289 130.858 55.2912 131.595 55.9071C132.329 56.5231 133.217 56.8346 134.26 56.8346C135.18 56.8346 135.95 56.6462 136.572 56.2622C137.194 55.8818 137.74 55.4035 138.211 54.8275L140.843 56.8346C139.988 57.9034 139.028 58.6643 137.963 59.1172C136.902 59.57 135.788 59.7947 134.626 59.7947C133.523 59.7947 132.483 59.6099 131.502 59.2403C130.52 58.8708 129.675 58.3454 128.96 57.6679C128.244 56.9904 127.68 56.1716 127.259 55.2151C126.842 54.2587 126.63 53.1935 126.63 52.0196C126.63 50.8458 126.838 49.7842 127.259 48.8241C127.676 47.8676 128.244 47.0488 128.96 46.3713C129.675 45.6938 130.52 45.1684 131.502 44.7989C132.48 44.4293 133.523 44.2446 134.626 44.2446C135.648 44.2446 136.582 44.4257 137.427 44.7844C138.272 45.1431 138.999 45.6648 139.603 46.3423C140.207 47.0198 140.674 47.8604 141.012 48.8567C141.35 49.853 141.516 51.0015 141.516 52.2986V53.3167H130.308ZM137.841 50.5378C137.819 49.4473 137.485 48.5886 136.831 47.9618C136.176 47.335 135.27 47.0198 134.105 47.0198C133.001 47.0198 132.131 47.3386 131.487 47.9763C130.844 48.614 130.452 49.469 130.308 50.5378H137.841Z" fill="white"></path>
               <path d="M144.331 44.6141H147.823V46.9908H147.884C148.233 46.2481 148.761 45.6068 149.477 45.0634C150.192 44.5199 151.159 44.2446 152.386 44.2446C153.367 44.2446 154.198 44.4112 154.881 44.7373C155.564 45.067 156.121 45.4981 156.549 46.0343C156.977 46.5706 157.286 47.1865 157.47 47.8857C157.653 48.585 157.747 49.3168 157.747 50.0777V59.4287H154.072V51.929C154.072 51.5196 154.05 51.0595 154.011 50.5559C153.971 50.0523 153.863 49.5777 153.691 49.1357C153.518 48.6937 153.249 48.3241 152.878 48.0234C152.511 47.7263 152.012 47.5778 151.379 47.5778C150.746 47.5778 150.25 47.6792 149.833 47.8857C149.415 48.0922 149.067 48.3676 148.79 48.719C148.513 49.0705 148.315 49.469 148.193 49.9219C148.071 50.3748 148.01 50.8494 148.01 51.3421V59.4287H144.335V44.6177L144.331 44.6141Z" fill="white"></path>
               <path d="M159.581 47.7626V44.6141H162.612V40.3245H166.286V44.6141H170.328V47.7626H166.286V54.2442C166.286 54.9869 166.423 55.5702 166.7 56.0014C166.977 56.4325 167.523 56.6499 168.34 56.6499C168.667 56.6499 169.023 56.6137 169.411 56.5412C169.799 56.4687 170.105 56.3528 170.332 56.1861V59.302C169.943 59.4867 169.469 59.6172 168.908 59.6896C168.347 59.7621 167.851 59.7983 167.423 59.7983C166.441 59.7983 165.643 59.6896 165.017 59.4759C164.395 59.2585 163.906 58.9324 163.547 58.4868C163.191 58.0448 162.942 57.4941 162.809 56.8347C162.676 56.1753 162.612 55.4144 162.612 54.5522V47.7626H159.581Z" fill="white"></path>
               <path d="M172.597 44.6141H176.272V46.9582H176.333C176.743 46.096 177.322 45.4257 178.077 44.9511C178.832 44.4765 179.698 44.241 180.68 44.241C180.903 44.241 181.122 44.2627 181.338 44.3026C181.554 44.346 181.773 44.3968 181.996 44.4583V48.0379C181.69 47.9546 181.388 47.8894 181.094 47.8386C180.799 47.7879 180.507 47.7626 180.22 47.7626C179.364 47.7626 178.674 47.922 178.152 48.2408C177.631 48.5596 177.232 48.9256 176.959 49.335C176.685 49.7444 176.498 50.1574 176.408 50.5704C176.315 50.9834 176.272 51.2914 176.272 51.4979V59.4288H172.597V44.6178V44.6141Z" fill="white"></path>
               <path d="M193.085 57.389H192.992C192.459 58.2332 191.787 58.8455 190.971 59.2259C190.155 59.6063 189.256 59.7983 188.274 59.7983C187.602 59.7983 186.944 59.7041 186.3 59.5193C185.656 59.3346 185.085 59.0556 184.585 58.686C184.085 58.3165 183.682 57.8527 183.377 57.2984C183.071 56.7441 182.917 56.0956 182.917 55.3528C182.917 54.5521 183.06 53.8674 183.344 53.3022C183.628 52.737 184.013 52.2624 184.491 51.882C184.97 51.5015 185.527 51.1972 186.16 50.9726C186.793 50.748 187.451 50.5777 188.134 50.4654C188.817 50.353 189.507 50.2806 190.201 50.248C190.895 50.2154 191.55 50.2009 192.161 50.2009H193.082V49.7987C193.082 48.8712 192.765 48.1792 192.132 47.7155C191.499 47.2517 190.694 47.0198 189.712 47.0198C188.936 47.0198 188.213 47.1575 187.537 47.4365C186.865 47.7155 186.282 48.0886 185.789 48.5633L183.859 46.6177C184.675 45.7735 185.628 45.1685 186.721 44.7953C187.814 44.4257 188.939 44.241 190.104 44.241C191.147 44.241 192.024 44.3605 192.736 44.596C193.452 44.8315 194.042 45.1359 194.513 45.5054C194.984 45.875 195.343 46.3025 195.599 46.7843C195.854 47.2698 196.037 47.7553 196.149 48.2517C196.26 48.7444 196.328 49.2226 196.346 49.6864C196.368 50.1501 196.379 50.5559 196.379 50.9037V59.4215H193.071V57.3854L193.085 57.389ZM192.869 52.7913H192.104C191.593 52.7913 191.021 52.8131 190.388 52.8529C189.756 52.8928 189.159 52.9906 188.598 53.1464C188.037 53.3022 187.562 53.5268 187.174 53.8239C186.785 54.121 186.591 54.5377 186.591 55.0739C186.591 55.4253 186.667 55.7188 186.821 55.9543C186.976 56.1898 187.174 56.3927 187.418 56.5557C187.663 56.7224 187.94 56.8383 188.245 56.9107C188.551 56.9832 188.857 57.0194 189.166 57.0194C190.432 57.0194 191.366 56.7151 191.967 56.1101C192.567 55.5014 192.869 54.6753 192.869 53.6246V52.7913Z" fill="white"></path>
               <path d="M199.791 36.1H203.466V59.4287H199.791V36.1Z" fill="white"></path>
               <path d="M214.702 48.5959C214.702 46.8496 214.987 45.259 215.558 43.8279C216.13 42.3968 216.921 41.1795 217.931 40.1723C218.942 39.1651 220.146 38.3861 221.545 37.8427C222.944 37.2992 224.479 37.0239 226.155 37.0239C227.848 37.0021 229.402 37.2557 230.808 37.7811C232.217 38.3064 233.432 39.0709 234.45 40.0817C235.471 41.0889 236.266 42.3026 236.838 43.7229C237.409 45.1431 237.693 46.7264 237.693 48.4763C237.693 50.2262 237.406 51.737 236.838 53.1355C236.266 54.534 235.471 55.7369 234.45 56.7441C233.429 57.7513 232.213 58.5375 230.808 59.1063C229.398 59.6715 227.848 59.965 226.155 59.9867C224.479 59.9867 222.944 59.715 221.545 59.1679C220.146 58.6208 218.942 57.8527 217.931 56.8528C216.921 55.8564 216.13 54.6572 215.558 53.2587C214.987 51.8602 214.702 50.3059 214.702 48.5995V48.5959ZM218.744 48.3495C218.744 49.5234 218.924 50.603 219.28 51.5885C219.636 52.574 220.143 53.429 220.797 54.15C221.452 54.871 222.232 55.4362 223.142 55.8456C224.051 56.2586 225.065 56.4615 226.187 56.4615C227.309 56.4615 228.33 56.255 229.251 55.8456C230.171 55.4325 230.955 54.8674 231.609 54.15C232.264 53.429 232.767 52.5776 233.123 51.5885C233.479 50.5994 233.659 49.5197 233.659 48.3495C233.659 47.259 233.479 46.2409 233.123 45.2953C232.767 44.3497 232.26 43.52 231.609 42.8099C230.955 42.0998 230.171 41.5454 229.251 41.1433C228.33 40.7411 227.309 40.5418 226.187 40.5418C225.065 40.5418 224.048 40.7411 223.142 41.1433C222.232 41.5454 221.452 42.0998 220.797 42.8099C220.143 43.52 219.639 44.3497 219.28 45.2953C218.924 46.2409 218.744 47.259 218.744 48.3495Z" fill="white"></path>
               <path d="M240.426 36.1H244.101V50.7588L249.764 44.6177H254.482L248.171 51.3457L254.877 59.4324H250.009L244.158 51.8711H244.097V59.4324H240.422V36.1036L240.426 36.1Z" fill="white"></path>
               <path d="M256.319 36.1H259.994V59.4287H256.319V36.1Z" fill="white"></path>
               <path d="M272.798 57.389H272.705C272.172 58.2332 271.5 58.8455 270.684 59.2259C269.868 59.6063 268.969 59.7983 267.987 59.7983C267.315 59.7983 266.657 59.7041 266.013 59.5193C265.369 59.3346 264.798 59.0556 264.298 58.686C263.798 58.3165 263.395 57.8527 263.09 57.2984C262.784 56.7441 262.629 56.0956 262.629 55.3528C262.629 54.5521 262.773 53.8674 263.057 53.3022C263.341 52.737 263.726 52.2624 264.204 51.882C264.683 51.5015 265.24 51.1972 265.873 50.9726C266.506 50.748 267.164 50.5777 267.847 50.4654C268.53 50.353 269.22 50.2806 269.914 50.248C270.608 50.2154 271.263 50.2009 271.874 50.2009H272.794V49.7987C272.794 48.8712 272.478 48.1792 271.845 47.7155C271.212 47.2517 270.407 47.0198 269.425 47.0198C268.649 47.0198 267.926 47.1575 267.25 47.4365C266.578 47.7155 265.995 48.0886 265.502 48.5633L263.572 46.6177C264.388 45.7735 265.341 45.1685 266.434 44.7953C267.527 44.4257 268.652 44.241 269.817 44.241C270.86 44.241 271.737 44.3605 272.449 44.596C273.165 44.8315 273.755 45.1359 274.226 45.5054C274.697 45.875 275.056 46.3025 275.311 46.7843C275.567 47.2698 275.75 47.7553 275.862 48.2517C275.973 48.7444 276.041 49.2226 276.059 49.6864C276.081 50.1501 276.092 50.5559 276.092 50.9037V59.4215H272.784V57.3854L272.798 57.389ZM272.582 52.7913H271.816C271.306 52.7913 270.734 52.8131 270.101 52.8529C269.468 52.8928 268.872 52.9906 268.311 53.1464C267.75 53.3022 267.275 53.5268 266.887 53.8239C266.498 54.121 266.304 54.5377 266.304 55.0739C266.304 55.4253 266.38 55.7188 266.534 55.9543C266.689 56.1898 266.887 56.3927 267.131 56.5557C267.376 56.7224 267.653 56.8383 267.958 56.9107C268.264 56.9832 268.57 57.0194 268.879 57.0194C270.144 57.0194 271.079 56.7151 271.68 56.1101C272.28 55.5014 272.582 54.6753 272.582 53.6246V52.7913Z" fill="white"></path>
               <path d="M283.118 46.6829H283.179C283.463 46.067 283.97 45.5054 284.696 45.0018C285.419 44.4982 286.354 44.2446 287.497 44.2446C288.479 44.2446 289.31 44.4112 289.993 44.7373C290.676 45.067 291.233 45.4981 291.661 46.0344C292.089 46.5706 292.398 47.1865 292.582 47.8857C292.765 48.585 292.858 49.3168 292.858 50.0777V59.4287H289.184V51.929C289.184 51.5196 289.162 51.0595 289.123 50.5559C289.083 50.0523 288.975 49.5777 288.803 49.1357C288.63 48.6937 288.36 48.3241 287.99 48.0234C287.623 47.7263 287.123 47.5778 286.491 47.5778C285.858 47.5778 285.361 47.6792 284.944 47.8857C284.527 48.0922 284.178 48.3676 283.902 48.719C283.625 49.0705 283.427 49.469 283.305 49.9219C283.182 50.3748 283.121 50.8494 283.121 51.3421V59.4287H279.447V36.1H283.121V46.6829H283.118Z" fill="white"></path>
               <path d="M295.67 52.0196C295.67 50.8458 295.879 49.7842 296.3 48.8241C296.717 47.8676 297.285 47.0488 298 46.3713C298.716 45.6938 299.561 45.1684 300.542 44.7989C301.52 44.4293 302.563 44.2446 303.667 44.2446C304.771 44.2446 305.81 44.4293 306.792 44.7989C307.77 45.1684 308.618 45.6938 309.334 46.3713C310.049 47.0488 310.614 47.8676 311.035 48.8241C311.452 49.7806 311.664 50.8458 311.664 52.0196C311.664 53.1935 311.455 54.255 311.035 55.2151C310.618 56.1716 310.049 56.9904 309.334 57.6679C308.618 58.3454 307.773 58.8708 306.792 59.2403C305.81 59.6099 304.771 59.7947 303.667 59.7947C302.563 59.7947 301.524 59.6099 300.542 59.2403C299.561 58.8708 298.716 58.3454 298 57.6679C297.285 56.9904 296.72 56.1716 296.3 55.2151C295.882 54.2587 295.67 53.1935 295.67 52.0196ZM299.345 52.0196C299.345 52.5957 299.442 53.15 299.636 53.6862C299.831 54.2224 300.115 54.6934 300.492 55.1065C300.87 55.5195 301.323 55.8492 301.855 56.0955C302.387 56.3419 302.988 56.4651 303.664 56.4651C304.34 56.4651 304.94 56.3419 305.469 56.0955C306.001 55.8492 306.454 55.5195 306.831 55.1065C307.209 54.697 307.493 54.2224 307.687 53.6862C307.881 53.15 307.978 52.5957 307.978 52.0196C307.978 51.4436 307.881 50.8892 307.687 50.353C307.493 49.8168 307.205 49.3458 306.831 48.9328C306.454 48.5234 305.997 48.1937 305.469 47.9437C304.936 47.6973 304.336 47.5741 303.664 47.5741C302.991 47.5741 302.387 47.6973 301.855 47.9437C301.323 48.1901 300.87 48.5198 300.492 48.9328C300.115 49.3458 299.827 49.8168 299.636 50.353C299.442 50.8892 299.345 51.4436 299.345 52.0196Z" fill="white"></path>
               <path d="M314.321 44.6141H317.813V46.9292H317.874C318.201 46.23 318.726 45.6068 319.452 45.0634C320.175 44.5199 321.153 44.2446 322.376 44.2446C324.68 44.2446 326.212 45.1612 326.967 46.9908C327.499 46.0452 328.161 45.3496 328.959 44.9076C329.754 44.4656 330.703 44.2446 331.807 44.2446C332.789 44.2446 333.616 44.4112 334.288 44.7373C334.96 45.067 335.507 45.5199 335.928 46.0959C336.345 46.672 336.647 47.3459 336.83 48.1176C337.014 48.8893 337.107 49.719 337.107 50.603V59.4287H333.432V51.0341C333.432 50.5813 333.393 50.1429 333.31 49.7226C333.227 49.3023 333.084 48.9292 332.882 48.6103C332.677 48.2915 332.404 48.0379 332.055 47.8531C331.706 47.6683 331.26 47.5741 330.707 47.5741C330.153 47.5741 329.65 47.6828 329.25 47.8966C328.851 48.114 328.528 48.4002 328.272 48.7589C328.017 49.1176 327.834 49.5306 327.722 49.9943C327.611 50.4581 327.553 50.9255 327.553 51.3965V59.4179H323.879V50.5921C323.879 49.6646 323.684 48.9328 323.296 48.3857C322.908 47.8422 322.264 47.5669 321.365 47.5669C320.754 47.5669 320.236 47.6683 319.819 47.8749C319.402 48.0814 319.053 48.3567 318.776 48.7082C318.499 49.0596 318.302 49.4581 318.179 49.911C318.057 50.3639 317.996 50.8385 317.996 51.3312V59.4179H314.321V44.6069V44.6141Z" fill="white"></path>
               <path d="M349.692 57.389H349.599C349.066 58.2332 348.394 58.8455 347.578 59.2259C346.762 59.6063 345.863 59.7983 344.881 59.7983C344.209 59.7983 343.551 59.7041 342.907 59.5193C342.263 59.3346 341.692 59.0556 341.192 58.686C340.692 58.3165 340.289 57.8527 339.984 57.2984C339.678 56.7441 339.523 56.0956 339.523 55.3528C339.523 54.5521 339.667 53.8674 339.951 53.3022C340.235 52.737 340.62 52.2624 341.098 51.882C341.577 51.5015 342.134 51.1972 342.767 50.9726C343.4 50.748 344.058 50.5777 344.741 50.4654C345.424 50.353 346.114 50.2806 346.808 50.248C347.502 50.2154 348.157 50.2009 348.768 50.2009H349.688V49.7987C349.688 48.8712 349.372 48.1792 348.739 47.7155C348.106 47.2517 347.301 47.0198 346.319 47.0198C345.543 47.0198 344.82 47.1575 344.144 47.4365C343.471 47.7155 342.889 48.0886 342.4 48.5633L340.469 46.6177C341.285 45.7735 342.238 45.1685 343.331 44.7953C344.424 44.4257 345.55 44.241 346.715 44.241C347.758 44.241 348.635 44.3605 349.347 44.596C350.062 44.8315 350.652 45.1359 351.123 45.5054C351.594 45.875 351.954 46.3025 352.209 46.7843C352.464 47.2698 352.648 47.7553 352.759 48.2517C352.871 48.7444 352.939 49.2226 352.957 49.6864C352.978 50.1501 352.989 50.5559 352.989 50.9037V59.4215H349.681V57.3854L349.692 57.389ZM349.476 52.7913H348.71C348.2 52.7913 347.628 52.8131 346.995 52.8529C346.362 52.8928 345.765 52.9906 345.205 53.1464C344.644 53.3022 344.169 53.5268 343.781 53.8239C343.392 54.121 343.198 54.5377 343.198 55.0739C343.198 55.4253 343.274 55.7188 343.428 55.9543C343.583 56.1898 343.781 56.3927 344.025 56.5557C344.27 56.7224 344.547 56.8383 344.852 56.9107C345.158 56.9832 345.463 57.0194 345.773 57.0194C347.038 57.0194 347.973 56.7151 348.574 56.1101C349.174 55.5014 349.476 54.6753 349.476 53.6246V52.7913Z" fill="white"></path>
               <path d="M113.84 28.8539C113.84 29.3684 113.761 29.8394 113.61 30.2741C113.455 30.7053 113.228 31.0821 112.923 31.4009C112.621 31.7197 112.24 31.9697 111.787 32.1473C111.333 32.3248 110.812 32.4154 110.222 32.4154C109.633 32.4154 109.097 32.3248 108.644 32.1473C108.191 31.9697 107.813 31.7197 107.511 31.4009C107.209 31.0821 106.979 30.7089 106.824 30.2741C106.67 29.843 106.594 29.3684 106.594 28.8539V23.5353H108.486V28.7814C108.486 29.0496 108.529 29.2995 108.615 29.5278C108.701 29.756 108.82 29.9553 108.975 30.122C109.129 30.2886 109.313 30.4191 109.525 30.5133C109.741 30.6075 109.971 30.6546 110.222 30.6546C110.474 30.6546 110.704 30.6075 110.913 30.5133C111.125 30.4191 111.305 30.2886 111.459 30.122C111.614 29.9553 111.733 29.756 111.819 29.5278C111.902 29.2995 111.945 29.0496 111.945 28.7814V23.5353H113.84V28.8539Z" fill="white"></path>
               <path d="M116.011 23.5353H118.582L122.236 29.5532H122.261V23.5353H124.156V32.1944H121.678L117.928 26.0316H117.903V32.1944H116.011V23.5353Z" fill="white"></path>
               <path d="M126.302 23.5353H128.197V32.1944H126.302V23.5353Z" fill="white"></path>
               <path d="M129.495 23.5353H131.656L133.781 29.209H133.807L135.968 23.5353H137.996L134.45 32.1944H132.933L129.499 23.5353H129.495Z" fill="white"></path>
               <path d="M139.383 23.5353H145.223V25.2961H141.278V26.912H145.004V28.6728H141.278V30.4336H145.442V32.1944H139.387V23.5353H139.383Z" fill="white"></path>
               <path d="M147.384 23.5353H150.71C151.145 23.5353 151.562 23.5788 151.954 23.6621C152.346 23.7491 152.691 23.8904 152.986 24.0896C153.281 24.2889 153.515 24.557 153.691 24.8976C153.863 25.2382 153.953 25.6584 153.953 26.162C153.953 26.7743 153.795 27.2924 153.479 27.7199C153.162 28.1475 152.702 28.4192 152.094 28.5315L154.277 32.1871H152.008L150.21 28.7271H149.275V32.1871H147.384V23.5281V23.5353ZM149.275 27.1185H150.394C150.563 27.1185 150.742 27.1113 150.933 27.1004C151.123 27.0895 151.296 27.0497 151.447 26.9917C151.602 26.9301 151.728 26.8359 151.828 26.7055C151.929 26.5751 151.979 26.3903 151.979 26.1548C151.979 25.9338 151.936 25.7599 151.846 25.6294C151.756 25.499 151.645 25.3976 151.508 25.3287C151.372 25.2599 151.213 25.2128 151.034 25.1874C150.854 25.1621 150.681 25.1512 150.512 25.1512H149.275V27.1185Z" fill="white"></path>
               <path d="M159.922 25.6512C159.767 25.4555 159.559 25.3106 159.296 25.2164C159.034 25.1222 158.786 25.0751 158.549 25.0751C158.412 25.0751 158.268 25.0896 158.124 25.1222C157.977 25.1548 157.84 25.2055 157.711 25.2744C157.581 25.3432 157.477 25.4338 157.394 25.5497C157.312 25.662 157.272 25.8033 157.272 25.9664C157.272 26.2272 157.369 26.4265 157.563 26.5642C157.758 26.7018 158.002 26.8214 158.297 26.9192C158.592 27.017 158.908 27.1149 159.25 27.2127C159.588 27.3105 159.908 27.4482 160.203 27.6293C160.497 27.8105 160.742 28.0496 160.936 28.3503C161.13 28.651 161.227 29.0568 161.227 29.5604C161.227 30.064 161.137 30.4626 160.961 30.8212C160.781 31.1799 160.544 31.477 160.239 31.7125C159.936 31.948 159.584 32.1255 159.181 32.2379C158.782 32.3502 158.358 32.4081 157.912 32.4081C157.355 32.4081 156.837 32.3212 156.359 32.1509C155.881 31.9806 155.438 31.7016 155.025 31.3176L156.373 29.8249C156.567 30.0858 156.812 30.2887 157.107 30.43C157.402 30.5713 157.707 30.6437 158.024 30.6437C158.178 30.6437 158.333 30.6256 158.491 30.5894C158.649 30.5531 158.789 30.4988 158.915 30.4227C159.041 30.3502 159.142 30.256 159.217 30.1401C159.293 30.0278 159.332 29.8901 159.332 29.738C159.332 29.4771 159.232 29.2706 159.034 29.1184C158.836 28.9662 158.588 28.8394 158.286 28.7344C157.988 28.6293 157.664 28.5206 157.315 28.4155C156.966 28.3105 156.643 28.1656 156.344 27.988C156.046 27.8105 155.798 27.5714 155.596 27.2779C155.399 26.9844 155.298 26.5968 155.298 26.1149C155.298 25.633 155.388 25.2418 155.571 24.8903C155.755 24.5389 155.996 24.2454 156.301 24.0099C156.603 23.7744 156.956 23.5969 157.351 23.4773C157.747 23.3578 158.157 23.2998 158.577 23.2998C159.063 23.2998 159.534 23.3686 159.983 23.5063C160.436 23.644 160.846 23.8759 161.209 24.2019L159.911 25.633L159.922 25.6512Z" fill="white"></path>
               <path d="M163.04 23.5353H164.934V32.1944H163.04V23.5353Z" fill="white"></path>
               <path d="M168.742 25.2236H166.29V23.5353H173.086V25.2236H170.634V32.1944H168.739V25.2236H168.742Z" fill="white"></path>
               <path d="M176.585 28.5025L173.356 23.5389H175.711L177.53 26.7816L179.461 23.5389H181.708L178.479 28.5025V32.1944H176.585V28.5025Z" fill="white"></path>
               <path d="M186.318 27.8648C186.318 27.1728 186.433 26.5424 186.663 25.9808C186.893 25.4193 187.217 24.941 187.627 24.5425C188.037 24.1439 188.529 23.8432 189.094 23.6331C189.658 23.4193 190.281 23.3143 190.949 23.3143C191.618 23.3143 192.24 23.4193 192.805 23.6331C193.369 23.8432 193.862 24.1476 194.272 24.5425C194.685 24.9374 195.005 25.4156 195.235 25.9808C195.465 26.5424 195.581 27.1728 195.581 27.8648C195.581 28.5568 195.465 29.1872 195.235 29.7488C195.005 30.3104 194.685 30.7922 194.272 31.1871C193.858 31.5821 193.369 31.8864 192.805 32.0965C192.237 32.3103 191.618 32.4154 190.949 32.4154C190.281 32.4154 189.658 32.3103 189.094 32.0965C188.526 31.8828 188.037 31.5821 187.627 31.1871C187.213 30.7922 186.893 30.314 186.663 29.7488C186.433 29.1872 186.318 28.5604 186.318 27.8648ZM188.285 27.8648C188.285 28.2742 188.346 28.6474 188.472 28.9843C188.598 29.3213 188.778 29.6147 189.011 29.8647C189.245 30.1147 189.525 30.3067 189.856 30.4444C190.183 30.5821 190.55 30.6509 190.957 30.6509C191.363 30.6509 191.726 30.5821 192.053 30.4444C192.38 30.3067 192.661 30.1111 192.898 29.8647C193.132 29.6147 193.312 29.3213 193.438 28.9843C193.563 28.6474 193.625 28.2742 193.625 27.8648C193.625 27.4554 193.563 27.0931 193.438 26.7525C193.312 26.4083 193.132 26.1149 192.898 25.8649C192.664 25.6149 192.38 25.4229 192.053 25.2852C191.726 25.1475 191.359 25.0787 190.957 25.0787C190.554 25.0787 190.187 25.1475 189.856 25.2852C189.529 25.4229 189.249 25.6185 189.011 25.8649C188.778 26.1149 188.598 26.4083 188.472 26.7525C188.346 27.0931 188.285 27.4663 188.285 27.8648Z" fill="white"></path>
               <path d="M197.375 23.5353H203.139V25.2961H199.266V27.0569H202.847V28.8177H199.266V32.1944H197.371V23.5353H197.375Z" fill="white"></path>
               <path d="M27.3237 75.5839L29.0029 73.4717V63.4467L17.9317 69.6023L0 59.7222L1.68998 57.4506V25.6403L0.0251699 23.7164L0.722734 23.1875C0.722734 23.1875 4.03077 20.6731 6.40393 19.3108C9.65444 17.4558 15.0048 15.5573 15.0264 15.5501L16.1123 15.1661V52.0704L17.022 52.6428L17.8814 53.1826L18.7408 52.6428L19.6505 52.0704V15.0791L20.7364 15.4704C20.7364 15.4704 24.6233 16.8616 27.0288 18.1478C27.6473 18.4811 28.388 18.9231 29.0065 19.3036V13.8654L27.4459 11.3727L28.0356 10.9198C28.0608 10.9054 32.2642 7.65911 37.3593 5.0469C43.6661 1.81152 49.6817 0.0724608 49.7069 0.0615917L49.919 0L50.1384 0.0543456C50.1743 0.0652148 55.949 1.5724 62.5075 5.05414C67.7788 7.85113 71.7844 10.9054 71.806 10.9198L72.3993 11.3727L70.8352 13.8654V19.3434C71.9354 18.6732 72.8631 18.1587 74.2295 17.4558C77.1276 15.9559 81.7769 14.1697 81.7912 14.1625L82.0897 14.0465L82.3845 14.1661C82.3845 14.1661 87.8931 16.3725 91.2731 18.2384C94.5739 20.0644 99.2555 23.452 99.2699 23.4592L99.9962 23.9845L98.3206 25.9265V57.447L100.011 59.7186L82.0897 69.595L70.5619 63.4177L70.5871 73.4572L72.6042 75.5296L49.9226 90L27.3237 75.5839ZM30.6281 74.0405L30.4519 74.2687L29.7292 75.1781L49.9226 88.0617L70.0333 75.2325L68.9582 74.1311L68.9295 60.6896L82.0789 67.7292L97.5871 59.1896L96.6954 57.994V25.3106L97.5943 24.2744C96.1525 23.2599 92.884 20.9992 90.4964 19.6804C87.7169 18.1406 83.2655 16.2928 82.0825 15.811C81.0218 16.2276 77.3182 17.7022 74.9774 18.9159C73.1616 19.8579 72.1943 20.4122 70.4648 21.5064L69.2171 22.2962V13.3944L70.2275 11.7858C68.9366 10.8546 65.7113 8.6011 61.756 6.50336C56.1072 3.50348 51.0517 2.00717 49.955 1.70283C48.8547 2.03977 43.5726 3.69913 38.0964 6.51061C34.2706 8.47067 30.9338 10.8184 29.6213 11.7821L30.6317 13.398V22.2817L29.3804 21.4738C29.3804 21.4738 27.4855 20.2528 26.2629 19.597C24.7887 18.8036 22.5846 17.9196 21.2793 17.4196V52.9761L20.8946 53.2152L19.6037 54.0304L17.8814 55.1137L17.4535 54.8456L16.1626 54.0304L14.4871 52.9761V17.4957C12.7683 18.1478 9.38836 19.4847 7.20937 20.7347C5.63086 21.6368 3.49861 23.1694 2.40911 23.9701L3.32242 25.0244V57.9977L3.15702 58.2187L2.43069 59.1933L17.9281 67.7328L30.6281 60.6715V74.0441V74.0405ZM42.4076 69.8124V18.3688L42.7995 18.1297C42.7995 18.1297 44.8059 16.9015 46.2298 16.2385C47.571 15.6189 49.6457 14.9161 49.6601 14.9088L49.9298 14.8182L50.1995 14.9161C50.1995 14.9161 52.3066 15.6914 53.6621 16.3508C55.1004 17.0573 57.114 18.3435 57.1284 18.3507L57.5095 18.5898V33.4008C57.5023 34.1218 57.3333 34.7377 57.1715 35.1725L57.5958 35.5094L67.5667 31.9733L67.5811 44.7736L67.5703 57.5738L57.5958 54.0341L57.1751 54.371C57.3369 54.8021 57.5059 55.4217 57.5095 56.1427V69.5769L49.9262 73.7579L42.404 69.8052L42.4076 69.8124ZM44.0365 44.183V68.8197L49.9118 71.9065L55.8843 68.6132V56.1499C55.8843 55.726 55.78 55.3057 55.6721 55.0014C55.5643 54.6971 55.4708 54.5413 55.4708 54.5413L55.1184 53.9254L57.2974 52.1899L65.9486 55.2586L65.9558 44.7736L65.9486 34.2849L57.2938 37.3572L55.1184 35.6181L55.4708 35.0058C55.4492 34.9913 55.8915 34.2522 55.8843 33.4008V19.5028C55.237 19.1043 53.9066 18.2927 52.9538 17.8254C52.0009 17.358 50.5195 16.7856 49.9154 16.5573C49.3185 16.7674 47.8515 17.2928 46.913 17.7275C45.9817 18.1587 44.6801 18.9123 44.0365 19.2927V44.1758V44.183ZM78.7421 53.3493V29.6474L82.0825 27.9952L84.9734 29.4227L85.4301 29.6474V53.3493L82.0825 55.0702L78.7421 53.3493ZM80.3709 30.6727V52.3457L82.0861 53.2297L83.8012 52.3457V30.6727L82.0861 29.8249L80.3709 30.6727Z" fill="white"></path>
               <path d="M67.2072 29.5858V12.7459C67.2072 12.7459 63.7373 10.38 59.6418 8.23879C55.2659 5.94903 49.9191 4.60126 49.9191 4.60126C49.9191 4.60126 45.349 5.67005 40.1963 8.23879C35.9966 10.3329 32.8431 12.7459 32.8431 12.7459V74.5839L41.4872 79.9859L49.9191 85.3879L58.351 79.9859L66.7829 74.5839L66.7901 67.24L66.7973 59.8961L63.2303 58.5484L59.6634 57.2006V64.2112L59.6526 71.2181L54.7841 74.0188L49.9155 76.8194L45.0469 74.0188L40.1784 71.2181V16.9848C40.1784 16.9848 41.5591 15.8617 44.1876 14.5936C46.852 13.3074 49.9155 12.2024 49.9155 12.2024C49.9155 12.2024 52.8172 13.0937 55.6434 14.5936C58.2647 15.9849 59.6526 16.9848 59.6526 16.9848V31.9154L63.2196 30.7524L67.2036 29.5894L67.2072 29.5858Z" fill="white"></path>
               <path d="M41.3181 80.2649L32.5231 74.7615V12.5865L32.6489 12.4887C32.6489 12.4887 35.8275 10.0612 40.0525 7.94898C45.2446 5.36213 49.8327 4.2897 49.8471 4.28246L49.919 4.26434L49.9981 4.28608C49.9981 4.28608 55.3665 5.63748 59.7892 7.9526C63.9027 10.1047 67.3797 12.4742 67.3869 12.4778L67.5307 12.572V29.8285L63.3202 31.0567L59.3362 32.3538V17.1515C58.9334 16.8762 57.6354 16.0102 55.496 14.8799C53.0077 13.5574 50.4584 12.7133 49.9262 12.543C49.3725 12.7459 46.6901 13.7458 44.3277 14.8835C42.1775 15.9233 40.8867 16.8508 40.5019 17.1406V71.0261L45.2087 73.7326L49.9154 76.439L54.6222 73.7326L59.329 71.0261V64.2076L59.3398 56.7332L63.3418 58.2441L67.1172 59.6715L67.11 67.2401L67.1029 74.7615L58.5235 80.2613L49.9154 85.7719L41.3145 80.2649H41.3181ZM33.1667 43.6649V74.3992L41.6597 79.7106L49.919 85.0002L58.1819 79.7106L66.4664 74.4028V67.2364L66.4772 60.1172L63.1224 58.8491L59.9942 57.6644V64.2003L59.987 71.3993L54.953 74.2941L49.9226 77.1853L44.8959 74.2941L39.8619 71.3993V16.8254L39.9805 16.7276C39.9805 16.7276 41.3972 15.5791 44.0545 14.2965C46.7404 13.0031 49.804 11.8945 49.8148 11.8945L49.9154 11.8546L50.0161 11.8872C50.0161 11.8872 52.9394 12.7821 55.798 14.3002C58.4336 15.6987 59.8324 16.7059 59.8431 16.7131L59.9798 16.8109V31.4625L63.1296 30.4336L66.8799 29.3394V12.9198C66.1931 12.4597 63.0865 10.409 59.4908 8.52866C55.4636 6.42005 50.5878 5.10851 49.9154 4.93461C49.315 5.08315 45.0792 6.16282 40.3365 8.52866C36.6545 10.3655 33.7852 12.4416 33.1595 12.9053V43.6613L33.1667 43.6649Z" fill="white"></path>
               <path clip-rule="evenodd" d="M82.086 25.441C82.086 25.441 80.3421 26.0968 79.2742 26.6294C78.138 27.1982 76.4624 28.2815 76.4624 28.2815V54.4978L79.2742 56.139L82.086 57.7803L84.8979 56.139L87.7097 54.4978V28.2815C87.7097 28.2815 86.0233 27.238 84.8979 26.6728C83.8264 26.1366 82.086 25.441 82.086 25.441ZM82.086 18.4051C82.086 18.4051 85.653 19.8144 89.5363 21.8071C92.0785 23.1114 94.4085 24.999 94.4085 24.999V58.2477L88.2455 61.6207L82.0825 64.9974L75.923 61.6207L69.76 58.2477V24.8613C69.76 24.8613 72.1332 23.1621 74.6322 21.8035C78.2962 19.8108 82.0825 18.4014 82.0825 18.4014L82.086 18.4051Z" fill="white" fill-rule="evenodd"></path>
               <path d="M75.7684 61.9106L69.4364 58.4433V24.6983L69.5694 24.6005C69.5694 24.6005 71.9534 22.894 74.474 21.5245C78.1596 19.5173 81.9602 18.1044 81.9674 18.1007L82.0789 18.0573L82.1939 18.1007C82.1939 18.1007 85.7752 19.5173 89.6766 21.5173C92.2619 22.8433 94.5955 24.7381 94.6027 24.7454L94.7249 24.8432V58.4397L88.3965 61.9069L82.0753 65.3669L75.7648 61.9069L75.7684 61.9106ZM70.0836 43.7917V58.0556L76.0812 61.3381L82.086 64.6315L88.0945 61.3381L94.0885 58.0556V25.1584C93.5851 24.7635 91.5643 23.2092 89.3925 22.0969C85.9334 20.3217 82.7297 19.0137 82.086 18.7529C81.4316 19.0029 78.0589 20.3144 74.7904 22.0933C72.6617 23.2491 70.623 24.6584 70.0872 25.0316V43.7881L70.0836 43.7917ZM79.1088 56.4216L76.1388 54.6862V28.1076L76.2862 28.0097C76.2862 28.0097 77.9654 26.9228 79.1268 26.3395C80.2199 25.7961 81.9638 25.1403 81.9674 25.1367L82.0825 25.0932L82.1975 25.1403C82.1975 25.1403 83.945 25.8359 85.0345 26.383C86.1851 26.9591 87.8679 28.0061 87.8715 28.0097L88.0261 28.1039V54.6898L85.0561 56.4253L82.0825 58.1607L79.1088 56.4253V56.4216ZM76.7824 43.5598V54.3094L79.4324 55.8565L82.0825 57.4035L84.7325 55.8565L87.3825 54.3094V28.4663C86.9438 28.1981 85.6566 27.4192 84.7505 26.9663C83.8659 26.5207 82.4852 25.9555 82.0789 25.7924C81.6761 25.9482 80.2918 26.4844 79.4144 26.9228C78.5047 27.3757 77.2139 28.1873 76.7824 28.4626V43.5598Z" fill="white"></path>
               <path d="M23.559 21.1187V40.1832L23.5518 54.5014L20.74 56.1427L17.9282 57.7839L15.1163 56.1427L12.3045 54.5014V21.1187C12.3045 21.1187 9.66525 22.1295 8.09393 23.0136C7.09073 23.5788 5.60571 24.6113 5.60571 24.6113V58.2513L11.7651 61.6243L17.9282 65.001L24.0912 61.6243L30.2506 58.2513V43.7917L30.2578 25.0026C30.2578 25.0026 28.7692 23.9302 27.766 23.3143C26.1875 22.3469 23.5554 21.1187 23.5554 21.1187H23.559Z" fill="white"></path>
               <path clip-rule="evenodd" d="M23.559 21.1187V40.1832L23.5518 54.5014L20.74 56.1427L17.9282 57.7839L15.1163 56.1427L12.3045 54.5014V21.1187C12.3045 21.1187 9.66525 22.1295 8.09393 23.0136C7.09073 23.5788 5.60571 24.6113 5.60571 24.6113V58.2513L11.7651 61.6243L17.9282 65.001L24.0912 61.6243L30.2506 58.2513V43.7917L30.2578 25.0026C30.2578 25.0026 28.7692 23.9302 27.766 23.3143C26.1875 22.3469 23.5554 21.1187 23.5554 21.1187H23.559Z" fill="white" fill-rule="evenodd"></path>
               <path d="M11.6141 61.9105L5.28564 58.4433V24.441L5.42228 24.3432C5.42228 24.3432 6.9109 23.3107 7.93927 22.731C9.54654 21.8288 12.1822 20.818 12.1894 20.818L12.628 20.6513V54.3167L15.2781 55.8637L17.9281 57.4107L20.5817 55.8637L23.2318 54.3167V40.1868L23.2389 21.1223V20.6151L23.6956 20.8252C23.6956 20.8252 26.3312 22.0498 27.9385 23.0389C28.9561 23.6657 30.4411 24.7381 30.4447 24.7381L30.5778 24.836V43.7953L30.5742 58.4469L24.2457 61.9142L17.9281 65.3742L11.6177 61.9142L11.6141 61.9105ZM5.92927 43.7917V58.0556L11.9233 61.3381L17.9281 64.6278L23.9401 61.3381L29.9341 58.0556V43.7917L29.9377 25.1693C29.553 24.8939 28.406 24.086 27.6041 23.5896C26.4499 22.8831 24.7024 22.0245 23.8826 21.6296V40.1832L23.879 54.6862L20.9053 56.4216L17.9281 58.1571L14.9581 56.4216L11.988 54.6862V21.5933C11.1754 21.9194 9.40631 22.644 8.25569 23.2925C7.45385 23.7454 6.3212 24.5099 5.92927 24.778V43.7881V43.7917Z" fill="white"></path>
               <path d="M89.9642 66.9828H88.9898V66.7401H91.2012V66.9828H90.2267V69.6095H89.9606V66.9828H89.9642Z" fill="white"></path>
               <path d="M91.6147 66.7401H92.0138L93.053 69.1494L94.0921 66.7401H94.4697V69.6095H94.2036V67.0806H94.1964L93.1105 69.6095H92.9954L91.8916 67.0806H91.8844V69.6095H91.6183V66.7401H91.6147Z" fill="white"></path>
            </g>
         </svg>